<svg width="324" height="226" viewBox="0 0 324 226" fill="none" xmlns="http://www.w3.org/2000/svg">
<path fill-rule="evenodd" clip-rule="evenodd" d="M57.6241 0.123241C39.7315 1.58922 25.0088 6.23284 13.4779 14.0473C9.21375 16.9371 0 25.3212 0 26.3114C0 26.5911 2.91781 29.3257 6.48373 32.3877L12.9668 37.9548L16.8222 34.2912C22.0937 29.2808 24.6272 27.4568 30.1679 24.6828C40.1287 19.6968 50.6827 17.4141 63.7254 17.4244C76.1675 17.4346 85.9968 19.9132 93.1307 24.8407C103.249 31.8296 107.787 41.8525 106.87 55.1852C105.981 68.0999 99.9384 79.5868 86.7663 93.4013C82.5278 97.8468 59.1304 120.939 12.3858 166.812L4.74551 174.311V180.935V187.559H80.93H157.115L159.94 191.234C164.093 196.639 173.81 205.753 179.848 209.907C189.993 216.886 201.056 221.586 214.102 224.458C222.848 226.385 239.515 226.53 248.376 224.757C288.705 216.69 317.776 185.863 323.034 145.59C324.24 136.36 324.295 132.141 323.32 123.924C320.052 96.3992 305.476 72.4175 282.803 57.2643C276.467 53.0298 267.578 48.431 264.767 47.9329C263.64 47.7328 262.977 48.9837 260.229 56.5021C257.134 64.9706 256.866 66.4148 258.394 66.4148C259.982 66.4148 270.481 72.2304 274.901 75.5584C288.408 85.7277 297.838 99.694 302.179 115.957C303.726 121.75 303.949 123.944 303.993 133.793C304.049 146.281 303.143 151.097 298.642 162.219C293.881 173.984 282.845 187.411 272.026 194.601C253.955 206.611 230.264 209.825 209.48 203.088C195.171 198.449 180.97 187.818 172.583 175.463L169.243 170.544H101.145H33.0471L58.3854 145.591C109.651 95.1061 113.634 90.7143 119.996 77.6444C130.335 56.4061 128.399 33.0084 115.093 18.3928C107.263 9.79161 96.2444 4.02503 82.7821 1.48169C77.4278 0.469658 62.9404 -0.312332 57.6241 0.123241ZM193.888 24.3561C184.007 36.7747 174.081 49.2505 171.829 52.081C169.577 54.9116 164.066 61.8208 159.581 67.4357C155.096 73.0505 142.982 88.2438 132.659 101.198L113.892 124.752V131.654V138.557H166.093H218.294V163.058V187.559H227.785H237.276V163.058V138.557H255.919H274.562V130.049V121.542H255.919H237.276V100.104V78.6653H228.124H218.971V100.104V121.542H178.974C156.975 121.542 138.976 121.381 138.976 121.185C138.976 120.872 148.372 108.892 180.329 68.462C184.99 62.5654 195.048 49.816 202.68 40.1293C210.312 30.4425 219.94 18.2295 224.076 12.989C228.212 7.7485 231.823 3.07833 232.102 2.61009C232.5 1.94448 230.355 1.76141 222.232 1.76821L211.853 1.77706L193.888 24.3561Z" fill="white"/>
</svg>
