<svg width="32" height="32" viewBox="0 0 32 32" fill="none" xmlns="http://www.w3.org/2000/svg">
<path d="M6.57199 21.8383C4.15913 22.5621 2.66675 23.5621 2.66675 24.6667C2.66675 26.8758 8.63628 28.6667 16.0001 28.6667C23.3639 28.6667 29.3334 26.8758 29.3334 24.6667C29.3334 23.5621 27.841 22.5621 25.4281 21.8383" stroke="#EBEBEB" stroke-linecap="round" stroke-linejoin="round"/>
<path d="M15.9999 23.3333C15.9999 23.3333 24.6666 17.6693 24.6666 11.1212C24.6666 6.4519 20.7864 2.66667 15.9999 2.66667C11.2135 2.66667 7.33325 6.4519 7.33325 11.1212C7.33325 17.6693 15.9999 23.3333 15.9999 23.3333Z" stroke="#EBEBEB" stroke-linejoin="round"/>
<path d="M16.0001 14.6667C17.841 14.6667 19.3334 13.1743 19.3334 11.3333C19.3334 9.4924 17.841 8 16.0001 8C14.1591 8 12.6667 9.4924 12.6667 11.3333C12.6667 13.1743 14.1591 14.6667 16.0001 14.6667Z" stroke="#EBEBEB" stroke-linejoin="round"/>
</svg>
