<svg width="32" height="32" viewBox="0 0 32 32" fill="none" xmlns="http://www.w3.org/2000/svg">
<path fill-rule="evenodd" clip-rule="evenodd" d="M8.99992 21.3333C9.92039 21.3333 10.6666 20.5871 10.6666 19.6667C10.6666 18.7462 9.92039 18 8.99992 18C8.07945 18 7.33325 18.7462 7.33325 19.6667C7.33325 20.5871 8.07945 21.3333 8.99992 21.3333Z" fill="#EBEBEB"/>
<path fill-rule="evenodd" clip-rule="evenodd" d="M22.9999 21.3333C23.9204 21.3333 24.6666 20.5871 24.6666 19.6667C24.6666 18.7462 23.9204 18 22.9999 18C22.0795 18 21.3333 18.7462 21.3333 19.6667C21.3333 20.5871 22.0795 21.3333 22.9999 21.3333Z" fill="#EBEBEB"/>
<path d="M4.66675 24.6667C3.56218 24.6667 2.66675 23.7713 2.66675 22.6667V16.4731C2.66675 14.9575 3.52332 13.5721 4.87915 12.8948L5.33377 12.6677L6.87375 6.06129C7.15515 4.85411 8.23122 4 9.47075 4H22.5963C23.8451 4 24.9267 4.86665 25.1988 6.08544L26.6688 12.6677L27.1223 12.8944C28.4774 13.572 29.3334 14.957 29.3334 16.4721V22.6667C29.3334 23.7713 28.438 24.6667 27.3334 24.6667H26.0021V25.3333C26.0021 26.8061 24.8072 28 23.3345 28C21.8617 28 20.6667 26.8061 20.6667 25.3333V24.6667H11.3334V25.3335C11.3334 26.8062 10.1396 28 8.66695 28C7.19428 28 6.00043 26.8062 6.00043 25.3335V24.6667H4.66675Z" stroke="#EBEBEB" stroke-linejoin="round"/>
<path d="M9.33325 14.6666H22.6666L21.5653 9.71069C21.4297 9.10069 20.8887 8.66663 20.2637 8.66663H11.7361C11.1112 8.66663 10.5701 9.10069 10.4346 9.71069L9.33325 14.6666Z" stroke="#EBEBEB" stroke-linejoin="round"/>
</svg>
