<svg width="64" height="64" viewBox="0 0 64 64" fill="none" xmlns="http://www.w3.org/2000/svg">
<path fill-rule="evenodd" clip-rule="evenodd" d="M18 42.6667C19.8409 42.6667 21.3333 41.1743 21.3333 39.3333C21.3333 37.4924 19.8409 36 18 36C16.159 36 14.6666 37.4924 14.6666 39.3333C14.6666 41.1743 16.159 42.6667 18 42.6667Z" fill="#EBEBEB"/>
<path fill-rule="evenodd" clip-rule="evenodd" d="M46 42.6667C47.8409 42.6667 49.3333 41.1743 49.3333 39.3333C49.3333 37.4924 47.8409 36 46 36C44.159 36 42.6666 37.4924 42.6666 39.3333C42.6666 41.1743 44.159 42.6667 46 42.6667Z" fill="#EBEBEB"/>
<path d="M9.33338 49.3333C7.12424 49.3333 5.33337 47.5425 5.33337 45.3333V32.9463C5.33337 29.9151 7.04652 27.1441 9.75818 25.7896L10.6674 25.3353L13.7474 12.1226C14.3102 9.70823 16.4623 8 18.9414 8H45.1925C47.6901 8 49.8533 9.73331 50.3975 12.1709L53.3375 25.3353L54.2446 25.7888C56.9547 27.144 58.6667 29.914 58.6667 32.9441V45.3333C58.6667 47.5425 56.8759 49.3333 54.6667 49.3333H52.0042V50.6667C52.0042 53.6121 49.6143 56 46.6689 56C43.7233 56 41.3334 53.6121 41.3334 50.6667V49.3333H22.6667V50.6671C22.6667 53.6124 20.2791 56 17.3338 56C14.3884 56 12.0007 53.6124 12.0007 50.6671V49.3333H9.33338Z" stroke="#FF8F01" stroke-width="3" stroke-linejoin="round"/>
<path d="M18.6666 29.3333H45.3333L43.1306 19.4214C42.8596 18.2014 41.7774 17.3333 40.5276 17.3333H23.4724C22.2225 17.3333 21.1404 18.2014 20.8693 19.4214L18.6666 29.3333Z" stroke="#EBEBEB" stroke-width="3" stroke-linejoin="round"/>
</svg>
