<svg width="32" height="32" viewBox="0 0 32 32" fill="none" xmlns="http://www.w3.org/2000/svg">
<path d="M23.941 27.696L27.5207 15.0293C27.7612 14.1784 27.1219 13.3334 26.2376 13.3334H18.5831C18.1143 13.3334 17.7673 12.8972 17.8727 12.4404L18.2057 10.9974C18.5112 9.67384 18.6093 8.31091 18.4964 6.95724L18.4351 6.22184C18.3694 5.43294 18.0262 4.69287 17.4664 4.13311C16.9543 3.62105 16.2599 3.33337 15.5357 3.33337H15.3763C14.9383 3.33337 14.5347 3.57081 14.3221 3.95366L12.55 7.14331C11.7553 8.57391 10.5706 9.74937 9.13393 10.533L4.69487 12.9544C4.26651 13.188 4 13.637 4 14.1249V27.3334C4 28.0698 4.59695 28.6667 5.33333 28.6667H22.6579C23.2547 28.6667 23.7787 28.2702 23.941 27.696Z" stroke="#EBEBEB" stroke-linecap="round" stroke-linejoin="round"/>
</svg>
