<svg width="597" height="610" viewBox="0 0 597 610" fill="none" xmlns="http://www.w3.org/2000/svg">
<g filter="url(#filter0_d_1159_3523)">
<path opacity="0.4" d="M305.418 357.819L299.716 360.853C298.804 361.339 297.714 361.339 296.802 360.853L291.1 357.819C259.793 341.158 240.514 310.415 240.514 277.15V256.83C240.514 255.223 241.699 253.849 243.277 253.681C254.068 252.528 262.648 244.706 264.015 234.814C264.234 233.231 265.544 232.039 267.123 232.039H329.395C330.974 232.039 332.284 233.231 332.503 234.814C333.87 244.706 342.45 252.528 353.241 253.681C354.819 253.849 356.004 255.224 356.004 256.83V277.149C356.004 310.415 336.725 341.158 305.418 357.819Z" fill="#FF8F01"/>
<path opacity="0.8" d="M296.414 349.672C282.218 342.117 270.409 331.259 262.265 318.272C254.217 305.438 249.964 290.854 249.964 276.095V264.561C249.964 262.892 250.965 261.386 252.497 260.772C260.94 257.389 267.754 251.04 271.48 243.108C272.144 241.695 273.563 240.805 275.109 240.805H321.946C323.491 240.805 324.91 241.695 325.574 243.108C329.301 251.04 336.114 257.389 344.557 260.772C346.09 261.386 347.091 262.893 347.091 264.562V276.095C347.091 290.854 342.837 305.439 334.789 318.272C326.645 331.26 314.837 342.118 300.64 349.672L300.404 349.798C299.229 350.423 297.825 350.423 296.651 349.798L296.414 349.672Z" fill="#FF8F01"/>
<path d="M289.722 285.606V276.38C289.722 271.201 293.787 266.988 298.784 266.988C303.781 266.988 307.846 271.201 307.846 276.38V285.606H310.407V276.38C310.407 269.738 305.193 264.334 298.784 264.334C292.376 264.334 287.162 269.738 287.162 276.38V285.606H289.722Z" fill="#EBEBEB"/>
<path d="M313.603 307.746H283.966C282.402 307.746 281.135 306.476 281.135 304.909V286.273C281.135 284.706 282.402 283.436 283.966 283.436H313.603C315.166 283.436 316.433 284.706 316.433 286.273V304.909C316.433 306.476 315.166 307.746 313.603 307.746Z" fill="#EBEBEB"/>
<path opacity="0.8" d="M301.798 294.311C301.798 292.62 300.448 291.25 298.784 291.25C297.12 291.25 295.771 292.62 295.771 294.311C295.771 295.533 296.478 296.585 297.498 297.076V300.796C297.498 301.518 298.074 302.103 298.784 302.103C299.495 302.103 300.071 301.518 300.071 300.796V297.076C301.09 296.585 301.798 295.533 301.798 294.311Z" fill="#FF8F01"/>
</g>
<path d="M347.212 368.004C336.413 378.735 323.797 388.078 309.632 395.608L300.574 400.423C299.125 401.193 297.393 401.193 295.944 400.423L286.886 395.608C244.002 372.812 215.325 333.403 208.235 289.14" stroke="url(#paint0_linear_1159_3523)" stroke-width="2"/>
<path d="M368.579 224.435C373.525 227.585 379.332 229.675 385.611 230.345C388.118 230.612 390 232.793 390 235.342V267.588C390 298.453 379.531 327.95 360.893 352.411" stroke="url(#paint1_linear_1159_3523)" stroke-width="2"/>
<path d="M206.519 267.589V235.342C206.519 232.792 208.402 230.612 210.909 230.345C228.053 228.515 241.683 216.102 243.856 200.404C244.204 197.892 246.285 196 248.793 196H347.726C350.233 196 352.315 197.892 352.662 200.404C353.012 202.932 353.659 205.374 354.57 207.701" stroke="url(#paint2_linear_1159_3523)" stroke-width="2"/>
<g filter="url(#filter1_d_1159_3523)">
<path d="M213.902 282.118C213.902 285.707 211.009 288.607 207.451 288.607C203.893 288.607 201 285.707 201 282.118C201 278.53 203.893 275.63 207.451 275.63C211.009 275.63 213.902 278.53 213.902 282.118Z" stroke="#FF8F01" stroke-width="2" shape-rendering="crispEdges"/>
</g>
<g filter="url(#filter2_d_1159_3523)">
<path d="M364.317 213.785C364.317 217.374 361.424 220.274 357.866 220.274C354.308 220.274 351.416 217.374 351.416 213.785C351.416 210.197 354.308 207.297 357.866 207.297C361.424 207.297 364.317 210.197 364.317 213.785Z" stroke="#FF8F01" stroke-width="2" shape-rendering="crispEdges"/>
</g>
<g filter="url(#filter3_d_1159_3523)">
<path d="M362.92 357.941C362.92 361.529 360.027 364.429 356.469 364.429C352.911 364.429 350.018 361.529 350.018 357.941C350.018 354.352 352.911 351.452 356.469 351.452C360.027 351.452 362.92 354.352 362.92 357.941Z" stroke="#FF8F01" stroke-width="2" shape-rendering="crispEdges"/>
</g>
<ellipse cx="207.451" cy="282.118" rx="1.86273" ry="1.87215" fill="#EBEBEB"/>
<ellipse cx="356.469" cy="357.94" rx="1.86273" ry="1.87215" fill="#EBEBEB"/>
<ellipse cx="357.867" cy="213.785" rx="1.86273" ry="1.87215" fill="#EBEBEB"/>
<defs>
<filter id="filter0_d_1159_3523" x="0.514404" y="0.0390625" width="595.489" height="609.178" filterUnits="userSpaceOnUse" color-interpolation-filters="sRGB">
<feFlood flood-opacity="0" result="BackgroundImageFix"/>
<feColorMatrix in="SourceAlpha" type="matrix" values="0 0 0 0 0 0 0 0 0 0 0 0 0 0 0 0 0 0 127 0" result="hardAlpha"/>
<feOffset dy="8"/>
<feGaussianBlur stdDeviation="120"/>
<feComposite in2="hardAlpha" operator="out"/>
<feColorMatrix type="matrix" values="0 0 0 0 1 0 0 0 0 0.560784 0 0 0 0 0.00392157 0 0 0 0.64 0"/>
<feBlend mode="normal" in2="BackgroundImageFix" result="effect1_dropShadow_1159_3523"/>
<feBlend mode="normal" in="SourceGraphic" in2="effect1_dropShadow_1159_3523" result="shape"/>
</filter>
<filter id="filter1_d_1159_3523" x="184" y="258.63" width="46.9019" height="46.9771" filterUnits="userSpaceOnUse" color-interpolation-filters="sRGB">
<feFlood flood-opacity="0" result="BackgroundImageFix"/>
<feColorMatrix in="SourceAlpha" type="matrix" values="0 0 0 0 0 0 0 0 0 0 0 0 0 0 0 0 0 0 127 0" result="hardAlpha"/>
<feOffset/>
<feGaussianBlur stdDeviation="8"/>
<feComposite in2="hardAlpha" operator="out"/>
<feColorMatrix type="matrix" values="0 0 0 0 1 0 0 0 0 0.560784 0 0 0 0 0.00392157 0 0 0 1 0"/>
<feBlend mode="normal" in2="BackgroundImageFix" result="effect1_dropShadow_1159_3523"/>
<feBlend mode="normal" in="SourceGraphic" in2="effect1_dropShadow_1159_3523" result="shape"/>
</filter>
<filter id="filter2_d_1159_3523" x="334.416" y="190.297" width="46.9019" height="46.9771" filterUnits="userSpaceOnUse" color-interpolation-filters="sRGB">
<feFlood flood-opacity="0" result="BackgroundImageFix"/>
<feColorMatrix in="SourceAlpha" type="matrix" values="0 0 0 0 0 0 0 0 0 0 0 0 0 0 0 0 0 0 127 0" result="hardAlpha"/>
<feOffset/>
<feGaussianBlur stdDeviation="8"/>
<feComposite in2="hardAlpha" operator="out"/>
<feColorMatrix type="matrix" values="0 0 0 0 1 0 0 0 0 0.560784 0 0 0 0 0.00392157 0 0 0 1 0"/>
<feBlend mode="normal" in2="BackgroundImageFix" result="effect1_dropShadow_1159_3523"/>
<feBlend mode="normal" in="SourceGraphic" in2="effect1_dropShadow_1159_3523" result="shape"/>
</filter>
<filter id="filter3_d_1159_3523" x="333.018" y="334.452" width="46.9019" height="46.9771" filterUnits="userSpaceOnUse" color-interpolation-filters="sRGB">
<feFlood flood-opacity="0" result="BackgroundImageFix"/>
<feColorMatrix in="SourceAlpha" type="matrix" values="0 0 0 0 0 0 0 0 0 0 0 0 0 0 0 0 0 0 127 0" result="hardAlpha"/>
<feOffset/>
<feGaussianBlur stdDeviation="8"/>
<feComposite in2="hardAlpha" operator="out"/>
<feColorMatrix type="matrix" values="0 0 0 0 1 0 0 0 0 0.560784 0 0 0 0 0.00392157 0 0 0 1 0"/>
<feBlend mode="normal" in2="BackgroundImageFix" result="effect1_dropShadow_1159_3523"/>
<feBlend mode="normal" in="SourceGraphic" in2="effect1_dropShadow_1159_3523" result="shape"/>
</filter>
<linearGradient id="paint0_linear_1159_3523" x1="205.821" y1="284.459" x2="361.383" y2="353.147" gradientUnits="userSpaceOnUse">
<stop stop-color="#FF8F01"/>
<stop offset="1" stop-color="#FF8F01" stop-opacity="0.1"/>
</linearGradient>
<linearGradient id="paint1_linear_1159_3523" x1="360.075" y1="356.162" x2="358.211" y2="224.178" gradientUnits="userSpaceOnUse">
<stop stop-color="#FF8F01"/>
<stop offset="1" stop-color="#FF8F01" stop-opacity="0.1"/>
</linearGradient>
<linearGradient id="paint2_linear_1159_3523" x1="207.684" y1="267.61" x2="362.409" y2="245.841" gradientUnits="userSpaceOnUse">
<stop stop-color="#FF8F01" stop-opacity="0.1"/>
<stop offset="1" stop-color="#FF8F01"/>
</linearGradient>
</defs>
</svg>
