<svg width="232" height="38" viewBox="0 0 232 38" fill="none" xmlns="http://www.w3.org/2000/svg">
<path fill-rule="evenodd" clip-rule="evenodd" d="M9.52192 0.020722C6.56531 0.267214 4.13251 1.048 2.22712 2.36193C1.5225 2.84782 0 4.25754 0 4.42404C0 4.47108 0.482145 4.93087 1.07138 5.44571L2.14266 6.38179L2.77973 5.76579C3.65082 4.92332 4.06944 4.61664 4.985 4.1502C6.63095 3.31185 8.37492 2.92804 10.5301 2.92976C12.5861 2.93147 14.2103 3.34825 15.3891 4.17675C17.061 5.35188 17.8109 7.03715 17.6593 9.27892C17.5125 11.4504 16.514 13.3819 14.3374 15.7046C13.6371 16.4521 9.77083 20.3349 2.04665 28.0481L0.784158 29.3089V30.4226V31.5364H13.373H25.962L26.4288 32.1545C27.1151 33.0632 28.7208 34.5956 29.7185 35.2941C31.3949 36.4676 33.2229 37.2578 35.3786 37.7408C36.8238 38.0647 39.578 38.0891 41.0422 37.791C47.7061 36.4347 52.5099 31.2514 53.3789 24.4797C53.578 22.9279 53.5872 22.2184 53.426 20.8368C52.8861 16.2087 50.4775 12.1764 46.7309 9.62852C45.6839 8.91651 44.2152 8.14327 43.7506 8.05951C43.5643 8.02586 43.4549 8.23619 43.0008 9.50035C42.4893 10.9243 42.4451 11.1671 42.6976 11.1671C42.96 11.1671 44.6949 12.1449 45.4251 12.7045C47.6571 14.4144 49.2154 16.7627 49.9327 19.4972C50.1882 20.4713 50.2251 20.8402 50.2324 22.4961C50.2417 24.596 50.0919 25.4057 49.3482 27.2758C48.5614 29.254 46.7378 31.5116 44.9501 32.7206C41.9641 34.7399 38.0494 35.2804 34.615 34.1476C32.2504 33.3676 29.9039 31.58 28.5179 29.5027L27.9661 28.6755H16.7134H5.46076L9.64772 24.4799C18.119 15.9913 18.7771 15.2529 19.8284 13.0553C21.5368 9.48422 21.2168 5.55008 19.0182 3.0926C17.7243 1.64638 15.9036 0.676774 13.6791 0.249133C12.7943 0.0789691 10.4004 -0.052516 9.52192 0.020722ZM32.0385 4.09527C30.4057 6.18336 28.7655 8.28105 28.3933 8.75699C28.0213 9.23292 27.1106 10.3947 26.3694 11.3387C25.6284 12.2828 23.6266 14.8375 21.9209 17.0156L18.8198 20.9759V22.1365V23.2971H27.4455H36.0713V27.4168V31.5364H37.6396H39.2079V27.4168V23.2971H42.2885H45.3691V21.8667V20.4363H42.2885H39.2079V16.8316V13.2269H37.6956H36.1833V16.8316V20.4363H29.574C25.9388 20.4363 22.9646 20.4093 22.9646 20.3763C22.9646 20.3237 24.5174 18.3093 29.798 11.5113C30.5682 10.5198 32.2301 8.37615 33.4913 6.7474C34.7524 5.11866 36.3434 3.06513 37.0267 2.18399C37.7102 1.30284 38.3069 0.517596 38.353 0.438865C38.4187 0.326948 38.0644 0.296166 36.722 0.29731L35.007 0.298798L32.0385 4.09527Z" fill="white"/>
<path d="M71.3848 26.8233V11.1763H77.1362C78.3797 11.1763 79.4086 11.3849 80.2228 11.8022C81.037 12.2194 81.644 12.7931 82.0437 13.5233C82.4434 14.2535 82.6433 15.0731 82.6433 15.9822C82.6433 16.8465 82.4508 17.6437 82.0659 18.3739C81.681 19.0892 81.0814 19.6704 80.2672 20.1174C79.453 20.5496 78.4093 20.7657 77.1362 20.7657H74.2272V26.8233H71.3848ZM74.2272 18.441H76.9585C77.9504 18.441 78.661 18.2249 79.0903 17.7927C79.5344 17.3457 79.7565 16.7422 79.7565 15.9822C79.7565 15.2073 79.5344 14.6037 79.0903 14.1716C78.661 13.7245 77.9504 13.501 76.9585 13.501H74.2272V18.441Z" fill="white"/>
<path d="M84.8733 26.8233V11.1763H90.5802C91.8238 11.1763 92.8453 11.3923 93.6447 11.8245C94.4589 12.2418 95.0659 12.8155 95.4656 13.5457C95.8653 14.261 96.0651 15.0582 96.0651 15.9374C96.0651 16.8912 95.8135 17.7629 95.3101 18.5527C94.8216 19.3425 94.0518 19.9163 93.0007 20.2739L96.2206 26.8233H92.9563L90.0695 20.6539H87.7156V26.8233H84.8733ZM87.7156 18.5527H90.4026C91.35 18.5527 92.0458 18.3218 92.49 17.8598C92.9341 17.3978 93.1561 16.7869 93.1561 16.0269C93.1561 15.2818 92.9341 14.6857 92.49 14.2386C92.0606 13.7916 91.3574 13.568 90.3804 13.568H87.7156V18.5527Z" fill="white"/>
<path d="M98.7087 26.8233V11.1763H102.084L107.036 21.101L111.921 11.1763H115.297V26.8233H112.454V16.0269L108.124 24.588H105.881L101.551 16.0269V26.8233H98.7087Z" fill="white"/>
<path d="M117.313 26.8233L122.998 11.1763H126.196L131.881 26.8233H128.86L127.617 23.2022H121.555L120.289 26.8233H117.313ZM122.332 20.9669H126.84L124.575 14.4622L122.332 20.9669Z" fill="white"/>
<path d="M139.174 26.8233V11.1763H149.211V13.4786H142.017V17.8598H147.835V20.1174H142.017V26.8233H139.174Z" fill="white"/>
<path d="M151.405 26.8233V11.1763H161.553V13.4786H154.247V17.7704H160.887V20.0057H154.247V24.521H161.553V26.8233H151.405Z" fill="white"/>
<path d="M164.243 26.8233V11.1763H169.55C171.371 11.1763 172.866 11.5041 174.036 12.1598C175.22 12.8006 176.094 13.7096 176.656 14.8869C177.233 16.0492 177.522 17.4202 177.522 18.9998C177.522 20.5794 177.233 21.9578 176.656 23.1351C176.094 24.2974 175.22 25.2065 174.036 25.8622C172.866 26.5029 171.371 26.8233 169.55 26.8233H164.243ZM167.085 24.3645H169.417C170.72 24.3645 171.749 24.1559 172.504 23.7386C173.259 23.3065 173.799 22.6955 174.125 21.9057C174.45 21.101 174.613 20.1323 174.613 18.9998C174.613 17.8822 174.45 16.921 174.125 16.1163C173.799 15.3116 173.259 14.6931 172.504 14.261C171.749 13.8288 170.72 13.6127 169.417 13.6127H167.085V24.3645Z" fill="white"/>
<path d="M180.03 26.8233V11.1763H190.178V13.4786H182.872V17.7704H189.512V20.0057H182.872V24.521H190.178V26.8233H180.03Z" fill="white"/>
<path d="M192.868 26.8233V11.1763H198.575C199.818 11.1763 200.84 11.3923 201.639 11.8245C202.454 12.2418 203.061 12.8155 203.46 13.5457C203.86 14.261 204.06 15.0582 204.06 15.9374C204.06 16.8912 203.808 17.7629 203.305 18.5527C202.816 19.3425 202.046 19.9163 200.995 20.2739L204.215 26.8233H200.951L198.064 20.6539H195.71V26.8233H192.868ZM195.71 18.5527H198.397C199.345 18.5527 200.041 18.3218 200.485 17.8598C200.929 17.3978 201.151 16.7869 201.151 16.0269C201.151 15.2818 200.929 14.6857 200.485 14.2386C200.055 13.7916 199.352 13.568 198.375 13.568H195.71V18.5527Z" fill="white"/>
<path d="M205.704 26.8233L211.389 11.1763H214.587L220.271 26.8233H217.251L216.008 23.2022H209.945L208.68 26.8233H205.704ZM210.723 20.9669H215.231L212.966 14.4622L210.723 20.9669Z" fill="white"/>
<path d="M222.274 26.8233V11.1763H225.116V24.588H232V26.8233H222.274Z" fill="white"/>
</svg>
