<svg width="20" height="20" viewBox="0 0 20 20" fill="none" xmlns="http://www.w3.org/2000/svg">
<path fill-rule="evenodd" clip-rule="evenodd" d="M9.9975 0H10.0025C15.5162 0 20 4.48625 20 10C20 15.5138 15.5162 20 10.0025 20C7.96875 20 6.0825 19.395 4.50125 18.3475L0.6575 19.5763L1.90375 15.8612C0.705 14.215 0 12.1875 0 10C0 4.485 4.48375 0 9.9975 0ZM13.8588 15.5323C14.6226 15.3673 15.5801 14.8023 15.8213 14.121C16.0626 13.4385 16.0626 12.8573 15.9926 12.7335C15.936 12.6353 15.8024 12.571 15.6029 12.4749C15.5509 12.4499 15.4945 12.4227 15.4338 12.3923C15.1401 12.246 13.7113 11.5398 13.4413 11.446C13.1763 11.346 12.9238 11.381 12.7238 11.6635C12.6858 11.7168 12.6478 11.7702 12.6101 11.8232C12.3688 12.1626 12.136 12.4899 11.9426 12.6985C11.7663 12.886 11.4788 12.9098 11.2376 12.8098C11.2113 12.7988 11.1811 12.7866 11.1474 12.773C10.7654 12.6187 9.91813 12.2765 8.89256 11.3635C8.02756 10.5935 7.44006 9.63477 7.27006 9.34727C7.10316 9.05886 7.24713 8.88974 7.38019 8.73344C7.38265 8.73054 7.38511 8.72765 7.38756 8.72477C7.47335 8.61862 7.5566 8.53024 7.64027 8.44141C7.70045 8.37751 7.76085 8.31339 7.82256 8.24227C7.83173 8.2317 7.84064 8.22145 7.84933 8.21147C7.98036 8.06081 8.05839 7.97109 8.14631 7.78352C8.24632 7.58977 8.17506 7.38977 8.10381 7.24227C8.05479 7.13897 7.75196 6.40421 7.49199 5.77346C7.38075 5.50356 7.27736 5.2527 7.20506 5.07852C7.01131 4.61477 6.86381 4.59727 6.57006 4.58477C6.56107 4.58432 6.55198 4.58386 6.5428 4.58339C6.44995 4.57869 6.34768 4.57352 6.23506 4.57352C5.85256 4.57352 5.45381 4.68602 5.21256 4.93227C5.20413 4.94088 5.19535 4.94981 5.18623 4.95909C4.87759 5.27298 4.19006 5.9722 4.19006 7.36602C4.19006 8.76253 5.18095 10.1141 5.36428 10.3641C5.36934 10.371 5.37378 10.3771 5.37756 10.3823C5.3886 10.3968 5.40939 10.4269 5.43965 10.4707C5.814 11.0128 7.63735 13.6533 10.3563 14.7798C12.6538 15.7323 13.3363 15.6435 13.8588 15.5323Z" fill="#2CB100"/>
</svg>
