<svg width="40" height="36" viewBox="0 0 40 36" fill="none" xmlns="http://www.w3.org/2000/svg">
<path d="M14.8748 20.325V36H0V23.625C0 16.925 0.822094 12.075 2.46628 9.075C4.62428 5.075 8.0411 2.05 12.7168 0L16.1079 5.25C13.282 6.4 11.201 8.125 9.86513 10.425C8.52922 12.675 7.7842 15.975 7.63006 20.325H14.8748ZM38.7669 20.325V36H23.8921V23.625C23.8921 16.925 24.7142 12.075 26.3584 9.075C28.5164 5.075 31.9332 2.05 36.6089 0L40 5.25C37.1741 6.4 35.0931 8.125 33.7572 10.425C32.4213 12.675 31.6763 15.975 31.5222 20.325H38.7669Z" fill="#FF8F01"/>
</svg>
