<svg width="32" height="32" viewBox="0 0 32 32" fill="none" xmlns="http://www.w3.org/2000/svg">
<path fill-rule="evenodd" clip-rule="evenodd" d="M9.00004 21.3333C9.92051 21.3333 10.6667 20.5871 10.6667 19.6667C10.6667 18.7462 9.92051 18 9.00004 18C8.07957 18 7.33337 18.7462 7.33337 19.6667C7.33337 20.5871 8.07957 21.3333 9.00004 21.3333Z" fill="#EBEBEB"/>
<path fill-rule="evenodd" clip-rule="evenodd" d="M23 21.3333C23.9205 21.3333 24.6667 20.5871 24.6667 19.6667C24.6667 18.7462 23.9205 18 23 18C22.0796 18 21.3334 18.7462 21.3334 19.6667C21.3334 20.5871 22.0796 21.3333 23 21.3333Z" fill="#EBEBEB"/>
<path d="M4.66663 24.6667C3.56206 24.6667 2.66663 23.7713 2.66663 22.6667V16.4731C2.66663 14.9575 3.5232 13.5721 4.87903 12.8948L5.33365 12.6677L6.87363 6.06129C7.15503 4.85411 8.23109 4 9.47063 4H22.5962C23.845 4 24.9266 4.86665 25.1987 6.08544L26.6687 12.6677L27.1222 12.8944C28.4773 13.572 29.3333 14.957 29.3333 16.4721V22.6667C29.3333 23.7713 28.4379 24.6667 27.3333 24.6667H26.002V25.3333C26.002 26.8061 24.8071 28 23.3344 28C21.8616 28 20.6666 26.8061 20.6666 25.3333V24.6667H11.3333V25.3335C11.3333 26.8062 10.1395 28 8.66683 28C7.19416 28 6.00031 26.8062 6.00031 25.3335V24.6667H4.66663Z" stroke="#EBEBEB" stroke-linejoin="round"/>
<path d="M9.33337 14.6666H22.6667L21.5654 9.71069C21.4298 9.10069 20.8888 8.66663 20.2638 8.66663H11.7362C11.1113 8.66663 10.5702 9.10069 10.4347 9.71069L9.33337 14.6666Z" stroke="#EBEBEB" stroke-linejoin="round"/>
</svg>
