<svg width="32" height="32" viewBox="0 0 32 32" fill="none" xmlns="http://www.w3.org/2000/svg">
<path d="M26.6667 6.66667H5.33337C4.2288 6.66667 3.33337 7.5621 3.33337 8.66667V23.3333C3.33337 24.4379 4.2288 25.3333 5.33337 25.3333H26.6667C27.7713 25.3333 28.6667 24.4379 28.6667 23.3333V8.66667C28.6667 7.5621 27.7713 6.66667 26.6667 6.66667Z" stroke="#EBEBEB"/>
<path d="M8.66663 16V11.3333" stroke="#EBEBEB" stroke-linecap="round" stroke-linejoin="round"/>
<path d="M8.66667 22C9.40305 22 10 21.403 10 20.6667C10 19.9303 9.40305 19.3333 8.66667 19.3333C7.93029 19.3333 7.33333 19.9303 7.33333 20.6667C7.33333 21.403 7.93029 22 8.66667 22Z" fill="#EBEBEB"/>
</svg>
