<svg width="32" height="32" viewBox="0 0 32 32" fill="none" xmlns="http://www.w3.org/2000/svg">
<path d="M24.6667 29.3333H11.6507C11.5915 29.3333 11.5366 29.3027 11.5054 29.2525L5.24009 19.1515C4.52745 18.0026 4.76318 16.5051 5.79433 15.6307C7.08708 14.5344 9.05601 14.8691 9.91401 16.3309L11.5555 19.1276V5.29468C11.5555 3.84326 12.7321 2.66666 14.1836 2.66666C15.635 2.66666 16.8116 3.84326 16.8116 5.29468V11.5139C16.8116 11.9043 17.1211 12.2243 17.5113 12.2373L25.2588 12.4962C26.0439 12.5224 26.6667 13.1664 26.6667 13.9519V27.3333C26.6667 28.4379 25.7713 29.3333 24.6667 29.3333Z" stroke="#EBEBEB" stroke-linecap="round" stroke-linejoin="round"/>
</svg>
