<svg width="32" height="32" viewBox="0 0 32 32" fill="none" xmlns="http://www.w3.org/2000/svg">
<path d="M23.941 27.6959L27.5207 15.0292C27.7612 14.1783 27.1219 13.3333 26.2376 13.3333H18.5831C18.1143 13.3333 17.7673 12.8971 17.8727 12.4403L18.2057 10.9973C18.5112 9.67372 18.6093 8.31078 18.4964 6.95712L18.4351 6.22172C18.3694 5.43282 18.0262 4.69275 17.4664 4.13299C16.9543 3.62093 16.2599 3.33325 15.5357 3.33325H15.3763C14.9383 3.33325 14.5347 3.57069 14.3221 3.95354L12.55 7.14319C11.7553 8.57378 10.5706 9.74925 9.13393 10.5329L4.69487 12.9543C4.26651 13.1879 4 13.6369 4 14.1248V27.3333C4 28.0697 4.59695 28.6666 5.33333 28.6666H22.6579C23.2547 28.6666 23.7787 28.2701 23.941 27.6959Z" stroke="#EBEBEB" stroke-linecap="round" stroke-linejoin="round"/>
</svg>
